<svg xmlns="http://www.w3.org/2000/svg" viewBox="0 0 693 184" width="693" height="184" role="img" aria-label="Ponte.trade">
  <title>Ponte.trade</title>
  
  <rect width="184" height="184" rx="40" fill="#0F0F0E"></rect>
  <g transform="translate(32 32) scale(1)">
  <path d="M22 98 L22 60 C22 35 98 35 98 60 L98 98" fill="none" stroke="#F2EEE2" stroke-width="11" stroke-linejoin="miter"></path>
  <line x1="12" y1="98" x2="108" y2="98" stroke="#F2EEE2" stroke-width="5"></line>
  <circle cx="60" cy="41" r="10" fill="#C9973A"></circle>
  </g>
  <g transform="translate(240 127.2) scale(0.3333)"><path d="M13 -212L15 -213L16 -212L30 -212L31 -211L78 -211L79 -212L108 -212L109 -211L120 -211L121 -210L124 -210L125 -209L129 -209L130 -208L135 -207L138 -205L140 -205L141 -204L148 -201L150 -199L151 -199L163 -186L163 -185L165 -183L165 -182L170 -173L170 -171L171 -170L171 -167L172 -166L172 -161L173 -160L173 -145L172 -144L172 -138L171 -137L171 -134L170 -133L170 -131L169 -130L169 -128L168 -127L168 -125L167 -124L166 -121L164 -119L164 -118L161 -114L161 -113L156 -108L156 -107L154 -106L154 -105L153 -105L150 -102L149 -102L146 -99L143 -98L141 -96L140 -96L135 -93L133 -93L130 -91L125 -90L124 -89L120 -89L119 -88L115 -88L114 -87L105 -87L104 -86L95 -86L94 -85L74 -85L73 -86L72 -86L70 -84L70 -22L71 -21L71 -18L72 -17L72 -15L76 -11L77 -11L82 -8L85 -8L86 -7L93 -7L94 -6L101 -6L101 -5L101 -1L100 0L85 0L84 -1L27 -1L26 0L13 0L11 -2L13 -6L18 -6L19 -7L24 -7L25 -8L27 -8L28 -9L31 -10L32 -11L32 -12L34 -15L34 -17L35 -18L35 -193L34 -194L34 -197L33 -198L33 -199L30 -203L29 -203L26 -205L23 -205L22 -206L15 -206L14 -207L13 -207L11 -208L11 -209ZM83 -206L82 -205L77 -204L74 -201L74 -200L72 -198L72 -196L71 -195L71 -191L70 -190L70 -92L71 -92L98 -92L99 -93L104 -93L105 -94L108 -94L111 -96L113 -96L114 -97L115 -97L117 -99L118 -99L127 -108L127 -109L129 -111L129 -112L132 -117L132 -119L133 -120L133 -123L134 -124L134 -127L135 -128L135 -135L136 -136L136 -143L137 -144L137 -155L136 -156L136 -165L135 -166L135 -171L134 -172L134 -175L133 -176L133 -179L132 -180L132 -182L131 -183L129 -188L127 -190L127 -191L125 -193L125 -194L123 -197L122 -197L119 -200L118 -200L113 -203L111 -203L110 -204L108 -204L107 -205L104 -205L103 -206ZM581 -202L582 -203L585 -203L585 -202L585 -156L587 -155L626 -155L626 -154L626 -149L624 -148L589 -148L588 -149L587 -149L585 -147L585 -25L586 -24L586 -19L587 -18L589 -13L591 -13L592 -11L593 -11L596 -9L599 -9L600 -8L606 -8L607 -9L610 -9L612 -11L615 -12L618 -15L618 -16L620 -18L621 -21L623 -23L623 -25L625 -28L626 -33L628 -35L631 -35L632 -33L632 -28L630 -25L630 -23L628 -20L628 -18L626 -16L626 -15L625 -14L624 -11L622 -9L622 -8L616 -2L615 -2L613 0L612 0L609 2L606 2L605 3L603 3L602 4L584 4L583 3L580 3L579 2L574 1L570 -2L569 -2L567 -4L566 -4L563 -6L563 -7L558 -13L558 -15L556 -18L556 -20L555 -21L555 -23L554 -24L554 -31L553 -32L553 -147L552 -149L551 -149L550 -148L528 -148L525 -149L525 -153L528 -155L552 -155L553 -156L553 -197L554 -198L561 -198L562 -199L566 -199L567 -200L574 -200L575 -201L577 -201L578 -202L581 -202ZM251 -158L252 -159L270 -159L271 -158L277 -158L278 -157L281 -157L282 -156L285 -156L288 -154L290 -154L293 -152L295 -152L297 -150L298 -150L302 -147L303 -147L315 -134L315 -133L319 -128L319 -127L324 -118L324 -116L325 -115L325 -113L326 -112L326 -110L327 -109L327 -106L328 -105L328 -102L329 -101L329 -94L330 -93L330 -60L329 -59L329 -53L328 -52L328 -48L327 -47L327 -44L326 -43L326 -41L325 -40L324 -35L323 -34L320 -27L318 -25L318 -24L316 -22L316 -21L314 -19L314 -18L305 -9L304 -9L299 -5L298 -5L289 0L286 0L285 1L283 1L282 2L278 2L277 3L273 3L272 4L250 4L249 3L245 3L244 2L240 2L239 1L237 1L236 0L231 -1L230 -2L223 -5L221 -7L220 -7L218 -9L217 -9L206 -19L206 -20L202 -25L202 -26L196 -37L196 -40L195 -41L195 -43L194 -44L194 -47L193 -48L193 -52L192 -53L192 -59L191 -60L191 -93L192 -94L192 -101L193 -102L193 -105L194 -106L194 -110L196 -113L196 -116L199 -121L199 -123L200 -124L201 -127L203 -129L203 -130L205 -132L205 -133L209 -137L209 -138L214 -143L215 -143L219 -147L220 -147L222 -149L223 -149L232 -154L234 -154L235 -155L237 -155L238 -156L240 -156L241 -157L245 -157L246 -158L251 -158ZM448 -158L449 -159L465 -159L466 -158L471 -158L472 -157L477 -156L478 -155L481 -154L483 -152L484 -152L487 -149L488 -149L491 -144L491 -143L493 -141L493 -140L495 -137L495 -135L496 -134L496 -131L497 -130L497 -125L498 -124L498 -26L499 -25L499 -17L500 -16L501 -13L506 -9L507 -9L508 -8L510 -8L511 -7L515 -7L516 -6L520 -6L520 -5L520 0L520 0L506 0L505 -1L488 -1L487 -2L481 -2L480 -1L462 -1L461 0L449 0L447 -1L447 -4L449 -6L452 -6L453 -7L456 -7L457 -8L459 -8L464 -13L464 -15L465 -16L465 -19L466 -20L466 -126L465 -127L465 -131L464 -132L464 -135L463 -136L462 -139L459 -144L458 -144L456 -146L455 -146L454 -147L452 -147L451 -148L437 -148L436 -147L431 -146L429 -144L426 -143L424 -141L423 -141L417 -135L417 -134L414 -131L414 -130L409 -121L409 -119L408 -118L408 -115L407 -114L407 -110L406 -109L406 -19L407 -18L407 -15L411 -10L412 -10L414 -8L416 -8L417 -7L420 -7L421 -6L424 -6L424 -5L424 0L424 0L412 0L411 -1L394 -1L393 -2L386 -2L385 -1L368 -1L367 0L353 0L351 -1L351 -4L353 -6L356 -6L357 -7L362 -7L363 -8L365 -8L370 -12L370 -13L372 -15L372 -18L373 -19L373 -131L372 -132L372 -135L371 -136L371 -138L370 -139L370 -140L365 -146L364 -146L361 -148L355 -148L351 -150L351 -152L354 -155L356 -155L357 -154L385 -154L386 -155L393 -155L394 -156L399 -156L400 -157L403 -157L404 -158L406 -156L406 -129L408 -129L410 -133L410 -134L412 -136L412 -137L414 -139L414 -140L422 -148L423 -148L428 -152L429 -152L434 -155L436 -155L437 -156L439 -156L440 -157L443 -157L444 -158L448 -158ZM704 -158L705 -159L721 -159L722 -158L727 -158L728 -157L732 -157L735 -155L740 -154L741 -153L744 -152L746 -150L747 -150L758 -138L758 -137L760 -135L760 -134L763 -129L763 -127L765 -124L765 -121L766 -120L766 -118L767 -117L767 -112L768 -111L768 -106L769 -105L769 -93L769 -93L680 -93L678 -91L678 -79L677 -78L677 -72L678 -71L678 -59L679 -58L679 -54L680 -53L680 -49L682 -46L682 -43L683 -42L683 -41L684 -40L687 -33L692 -27L692 -26L697 -22L698 -22L704 -17L705 -17L710 -14L712 -14L713 -13L732 -13L733 -14L735 -14L736 -15L739 -15L740 -16L745 -18L748 -21L749 -21L752 -24L753 -24L754 -25L754 -26L757 -29L757 -30L760 -33L761 -36L763 -38L764 -40L766 -40L769 -37L769 -35L768 -34L768 -33L767 -32L764 -25L762 -23L762 -22L760 -20L760 -19L757 -16L757 -15L753 -11L752 -11L751 -9L750 -9L744 -4L743 -4L734 1L732 1L731 2L728 2L727 3L724 3L723 4L701 4L700 3L697 3L696 2L692 2L691 1L686 0L685 -1L684 -1L683 -2L682 -2L681 -3L674 -6L671 -9L670 -9L659 -19L659 -20L654 -26L654 -27L651 -32L651 -34L648 -39L648 -41L647 -42L647 -45L646 -46L646 -48L645 -49L645 -55L644 -56L644 -60L643 -61L643 -88L644 -89L644 -94L645 -95L645 -100L646 -101L646 -104L647 -105L647 -108L648 -109L649 -114L650 -115L650 -116L651 -117L651 -119L652 -120L654 -125L656 -127L657 -130L660 -133L660 -134L672 -146L673 -146L676 -149L679 -150L681 -152L683 -152L688 -155L690 -155L691 -156L693 -156L694 -157L698 -157L699 -158L704 -158ZM257 -153L256 -152L253 -152L252 -151L247 -149L238 -140L238 -139L236 -137L236 -136L232 -129L232 -127L231 -126L231 -124L230 -123L230 -121L229 -120L229 -116L228 -115L228 -111L227 -110L227 -105L226 -104L226 -89L225 -88L225 -65L226 -64L226 -51L227 -50L227 -43L228 -42L228 -38L229 -37L229 -34L230 -33L230 -31L231 -30L231 -27L232 -26L232 -25L233 -24L233 -22L236 -18L237 -15L244 -8L245 -8L250 -4L252 -4L255 -2L267 -2L268 -3L269 -3L270 -4L272 -4L274 -6L275 -6L283 -14L283 -15L287 -20L287 -21L289 -24L290 -29L291 -30L291 -33L292 -34L292 -37L293 -38L293 -42L294 -43L294 -51L295 -52L295 -58L296 -59L296 -95L295 -96L295 -101L294 -102L294 -110L293 -111L293 -115L292 -116L292 -120L291 -121L291 -123L290 -124L289 -129L288 -130L285 -137L283 -139L283 -140L275 -149L274 -149L269 -152L266 -152L265 -153ZM708 -153L707 -152L704 -152L703 -151L700 -150L698 -148L697 -148L691 -142L691 -141L688 -138L688 -137L684 -130L684 -128L683 -127L683 -125L682 -124L682 -122L681 -121L681 -118L680 -117L680 -112L679 -111L679 -107L678 -106L678 -99L679 -99L681 -99L682 -98L735 -98L737 -99L737 -113L736 -114L736 -121L735 -122L735 -125L734 -126L734 -130L732 -133L732 -135L730 -138L730 -140L725 -146L725 -147L724 -148L721 -151L720 -151L719 -152L716 -152L715 -153Z" fill="#0F0F0E"></path></g>
  <g transform="translate(520.5 127.2) scale(0.16)"><path d="M843 -218L844 -219L874 -219L875 -217L875 -1L874 0L844 0L843 0L843 -23L842 -26L837 -15L834 -12L834 -11L829 -6L828 -6L826 -4L825 -4L823 -2L822 -2L819 0L816 0L815 1L813 1L812 2L807 2L806 3L792 3L791 2L785 2L784 1L782 1L781 0L778 0L777 -1L770 -4L768 -6L767 -6L762 -11L761 -11L760 -12L755 -17L755 -18L753 -20L753 -21L748 -30L748 -32L747 -33L747 -35L746 -36L746 -39L745 -40L745 -43L744 -44L744 -120L745 -121L745 -124L746 -125L746 -129L748 -132L748 -134L750 -137L750 -139L752 -141L752 -142L755 -146L755 -147L767 -159L768 -159L770 -161L771 -161L776 -164L778 -164L779 -165L781 -165L782 -166L784 -166L785 -167L790 -167L791 -168L806 -168L807 -167L812 -167L813 -166L816 -166L817 -165L819 -165L820 -164L825 -162L828 -159L829 -159L834 -153L834 -152L837 -149L837 -148L840 -143L841 -138L843 -138L843 -138L843 -167L842 -168L842 -217ZM242 -211L243 -212L244 -211L271 -211L272 -212L273 -210L273 -165L274 -165L337 -165L337 -164L337 -136L335 -135L282 -135L281 -136L274 -136L273 -135L273 -39L274 -38L275 -35L279 -32L280 -32L283 -30L289 -30L290 -29L334 -29L334 -28L334 0L334 0L279 0L278 -1L275 -1L274 -2L270 -2L269 -3L268 -3L267 -4L265 -4L263 -6L258 -8L248 -17L247 -20L245 -22L245 -24L243 -27L243 -29L242 -30L242 -32L241 -33L241 -42L240 -43L240 -81L241 -82L241 -134L240 -136L234 -136L233 -135L199 -135L198 -136L195 -136L195 -164L196 -165L240 -165L240 -165L240 -183L241 -184L241 -210ZM458 -167L459 -168L475 -168L476 -167L481 -167L482 -166L485 -166L486 -165L491 -164L492 -163L499 -160L502 -157L503 -157L512 -147L512 -146L514 -144L514 -143L516 -141L516 -140L518 -137L518 -135L519 -134L519 -133L520 -132L520 -130L521 -129L521 -125L522 -124L522 -121L523 -120L523 -96L523 -96L491 -96L490 -96L490 -112L489 -113L489 -117L488 -118L488 -120L487 -121L484 -128L478 -135L477 -135L475 -137L473 -137L472 -138L471 -138L470 -139L468 -139L467 -140L463 -140L462 -141L453 -141L452 -140L448 -140L447 -139L444 -139L443 -138L438 -136L436 -134L435 -134L430 -129L430 -128L428 -126L428 -125L425 -120L425 -117L424 -116L424 -113L423 -112L423 0L423 0L392 0L391 0L391 -164L392 -165L421 -165L422 -163L422 -141L424 -141L425 -143L425 -145L427 -147L427 -148L429 -150L429 -151L431 -153L431 -154L435 -158L436 -158L442 -163L444 -163L447 -165L449 -165L450 -166L452 -166L453 -167L458 -167ZM622 -167L623 -168L642 -168L643 -167L650 -167L651 -166L654 -166L655 -165L658 -165L661 -163L663 -163L666 -161L668 -161L670 -159L671 -159L673 -157L674 -157L676 -155L677 -155L686 -145L686 -144L688 -142L688 -141L692 -134L692 -132L693 -131L693 -129L694 -128L694 -124L695 -123L695 -115L696 -114L696 -83L695 -82L695 0L695 0L665 0L664 0L664 -25L664 -26L662 -24L662 -22L661 -21L659 -16L657 -14L657 -13L651 -7L648 -6L646 -4L645 -4L640 -1L638 -1L637 0L634 0L633 1L631 1L630 2L624 2L623 3L606 3L605 2L598 2L597 1L595 1L594 0L591 0L588 -2L586 -2L585 -3L580 -5L577 -8L576 -8L567 -16L567 -17L565 -19L565 -20L561 -27L561 -29L560 -30L560 -33L559 -34L559 -39L558 -40L558 -53L559 -54L559 -59L560 -60L560 -63L561 -64L561 -65L562 -66L562 -68L563 -69L564 -72L566 -74L566 -75L570 -79L570 -80L572 -81L577 -86L578 -86L580 -88L583 -89L585 -91L590 -92L593 -94L596 -94L597 -95L601 -95L602 -96L609 -96L610 -97L663 -97L663 -97L663 -117L662 -118L662 -122L661 -123L659 -128L653 -135L652 -135L650 -137L649 -137L646 -139L643 -139L642 -140L638 -140L637 -141L626 -141L625 -140L621 -140L620 -139L617 -139L616 -138L614 -138L613 -137L610 -136L602 -129L602 -128L599 -124L599 -122L598 -121L598 -120L597 -119L569 -119L566 -121L567 -122L567 -125L568 -126L568 -129L569 -130L569 -132L570 -133L573 -140L578 -146L578 -147L583 -152L584 -152L591 -158L592 -158L601 -163L603 -163L604 -164L606 -164L607 -165L610 -165L611 -166L614 -166L615 -167L622 -167ZM980 -167L981 -168L999 -168L1000 -167L1007 -167L1008 -166L1011 -166L1012 -165L1015 -165L1018 -163L1020 -163L1021 -162L1022 -162L1023 -161L1030 -158L1036 -153L1037 -153L1042 -147L1042 -146L1046 -142L1046 -141L1048 -139L1048 -138L1052 -131L1052 -129L1054 -126L1054 -122L1055 -121L1055 -118L1056 -117L1056 -75L1055 -74L958 -74L957 -75L955 -73L955 -50L956 -49L956 -46L957 -45L957 -43L958 -42L960 -37L967 -30L968 -30L970 -28L971 -28L974 -26L976 -26L977 -25L979 -25L980 -24L1003 -24L1004 -25L1009 -26L1010 -27L1015 -29L1022 -36L1022 -38L1025 -43L1055 -43L1056 -41L1056 -40L1055 -39L1055 -37L1054 -36L1054 -33L1053 -32L1050 -25L1048 -23L1048 -22L1046 -20L1046 -19L1040 -13L1039 -13L1036 -10L1035 -10L1030 -6L1029 -6L1024 -3L1022 -3L1021 -2L1020 -2L1019 -1L1017 -1L1016 0L1013 0L1012 1L1009 1L1008 2L1001 2L1000 3L982 3L981 2L974 2L973 1L971 1L970 0L966 0L963 -2L961 -2L960 -3L959 -3L958 -4L951 -7L948 -10L947 -10L944 -13L943 -13L938 -17L938 -18L933 -24L932 -27L930 -29L930 -31L928 -33L928 -35L927 -36L927 -38L926 -39L926 -42L925 -43L925 -46L924 -47L924 -117L925 -118L925 -121L926 -122L926 -125L927 -126L928 -131L929 -132L931 -137L933 -139L933 -140L935 -142L935 -143L937 -145L937 -146L944 -153L945 -153L948 -156L949 -156L951 -158L952 -158L961 -163L963 -163L966 -165L969 -165L970 -166L973 -166L974 -167L980 -167ZM983 -142L982 -141L978 -141L975 -139L973 -139L972 -138L971 -138L969 -136L968 -136L961 -129L961 -128L957 -121L957 -119L956 -118L956 -115L955 -114L955 -97L956 -97L1025 -97L1026 -99L1026 -108L1025 -109L1025 -113L1024 -114L1024 -118L1023 -119L1022 -124L1019 -128L1019 -129L1012 -137L1011 -137L1006 -140L1004 -140L1003 -141L999 -141L998 -142ZM806 -140L805 -139L799 -139L798 -138L796 -138L795 -137L790 -135L787 -132L786 -132L785 -130L783 -129L783 -128L779 -123L779 -121L777 -118L777 -115L776 -114L776 -50L777 -49L777 -46L779 -43L779 -41L781 -39L781 -38L783 -36L783 -35L787 -32L788 -32L790 -30L791 -30L796 -27L798 -27L799 -26L807 -26L808 -25L812 -25L813 -26L820 -26L821 -27L823 -27L824 -28L829 -30L832 -33L833 -33L833 -34L836 -37L836 -38L838 -40L838 -41L840 -44L840 -46L841 -47L841 -50L842 -51L842 -113L841 -114L841 -117L840 -118L840 -120L839 -121L838 -124L836 -126L836 -127L829 -135L828 -135L823 -138L821 -138L820 -139L814 -139L813 -140ZM656 -76L655 -75L613 -75L612 -74L608 -74L607 -73L606 -73L605 -72L603 -72L601 -70L600 -70L595 -65L595 -64L593 -62L593 -61L592 -60L592 -57L591 -56L591 -53L590 -52L590 -45L591 -44L591 -41L592 -40L592 -38L593 -37L594 -34L596 -32L596 -31L600 -28L601 -28L603 -26L604 -26L607 -24L610 -24L611 -23L613 -23L614 -22L633 -22L634 -23L637 -23L638 -24L641 -24L642 -25L643 -25L644 -26L646 -26L648 -28L651 -29L658 -36L658 -37L660 -39L660 -40L661 -41L661 -43L662 -44L662 -47L663 -48L663 -74L661 -76ZM83 -49L84 -50L97 -50L98 -49L103 -48L105 -46L106 -46L108 -44L109 -44L110 -42L111 -41L111 -40L113 -38L113 -37L115 -34L115 -31L116 -30L116 -16L115 -15L115 -12L114 -11L112 -6L108 -2L107 -2L105 0L104 0L101 2L97 2L96 3L86 3L85 2L81 2L78 0L76 0L69 -5L69 -6L67 -8L67 -9L65 -12L65 -15L64 -16L64 -20L63 -21L63 -24L64 -25L64 -30L65 -31L66 -36L72 -44L73 -44L78 -48L80 -48L81 -49Z" fill="#656055"></path></g>
</svg>